<mxfile host="app.diagrams.net" modified="2021-04-30T11:11:58.865Z" agent="5.0 (Macintosh; Intel Mac OS X 10_15_7) AppleWebKit/537.36 (KHTML, like Gecko) Chrome/90.0.4430.93 Safari/537.36" etag="FrWwMVwVf9WM4pBf-naJ" version="14.6.9" type="github">
  <diagram id="FMYuv1Z7_I0VgL38lzHM" name="Page-1">
    <mxGraphModel dx="1426" dy="794" grid="1" gridSize="10" guides="1" tooltips="1" connect="1" arrows="1" fold="1" page="1" pageScale="1" pageWidth="1654" pageHeight="1169" math="0" shadow="0">
      <root>
        <mxCell id="0" />
        <mxCell id="1" parent="0" />
        <mxCell id="4H8HrIyHu1BFUtkwFFCx-1" value="" style="rounded=0;whiteSpace=wrap;html=1;" parent="1" vertex="1">
          <mxGeometry x="180" y="70" width="670" height="620" as="geometry" />
        </mxCell>
        <mxCell id="4H8HrIyHu1BFUtkwFFCx-2" value="" style="outlineConnect=0;dashed=0;verticalLabelPosition=bottom;verticalAlign=top;align=center;html=1;shape=mxgraph.aws3.ecs;fillColor=#F58534;gradientColor=none;" parent="1" vertex="1">
          <mxGeometry x="190" y="80" width="72" height="67.5" as="geometry" />
        </mxCell>
        <mxCell id="4H8HrIyHu1BFUtkwFFCx-3" value="&lt;font style=&quot;font-size: 15px&quot;&gt;&lt;b&gt;ECS&lt;/b&gt;&lt;/font&gt;" style="text;html=1;align=center;verticalAlign=middle;resizable=0;points=[];autosize=1;strokeColor=none;" parent="1" vertex="1">
          <mxGeometry x="270" y="100" width="50" height="20" as="geometry" />
        </mxCell>
        <mxCell id="4H8HrIyHu1BFUtkwFFCx-4" value="" style="rounded=0;whiteSpace=wrap;html=1;fillColor=#f5f5f5;strokeColor=#666666;fontColor=#333333;fontStyle=1" parent="1" vertex="1">
          <mxGeometry x="230" y="200" width="180" height="200" as="geometry" />
        </mxCell>
        <mxCell id="4H8HrIyHu1BFUtkwFFCx-6" value="Task 1" style="rounded=0;whiteSpace=wrap;html=1;fontStyle=1" parent="1" vertex="1">
          <mxGeometry x="260" y="255" width="120" height="30" as="geometry" />
        </mxCell>
        <mxCell id="4H8HrIyHu1BFUtkwFFCx-7" value="Task 2" style="rounded=0;whiteSpace=wrap;html=1;fontStyle=1" parent="1" vertex="1">
          <mxGeometry x="260" y="300" width="120" height="30" as="geometry" />
        </mxCell>
        <mxCell id="4H8HrIyHu1BFUtkwFFCx-8" value="Task 3" style="rounded=0;whiteSpace=wrap;html=1;fontStyle=1" parent="1" vertex="1">
          <mxGeometry x="260" y="350" width="120" height="30" as="geometry" />
        </mxCell>
        <mxCell id="4H8HrIyHu1BFUtkwFFCx-9" value="" style="rounded=0;whiteSpace=wrap;html=1;fillColor=#e1d5e7;strokeColor=#9673a6;" parent="1" vertex="1">
          <mxGeometry x="230" y="460" width="260" height="210" as="geometry" />
        </mxCell>
        <mxCell id="4H8HrIyHu1BFUtkwFFCx-10" value="EC2" style="text;html=1;strokeColor=none;fillColor=none;align=center;verticalAlign=middle;whiteSpace=wrap;rounded=0;fontStyle=1" parent="1" vertex="1">
          <mxGeometry x="262" y="470" width="40" height="20" as="geometry" />
        </mxCell>
        <mxCell id="4H8HrIyHu1BFUtkwFFCx-11" value="" style="outlineConnect=0;dashed=0;verticalLabelPosition=bottom;verticalAlign=top;align=center;html=1;shape=mxgraph.aws3.ec2;fillColor=#F58534;gradientColor=none;" parent="1" vertex="1">
          <mxGeometry x="237.32" y="465" width="24.68" height="30" as="geometry" />
        </mxCell>
        <mxCell id="4H8HrIyHu1BFUtkwFFCx-12" value="" style="rounded=0;whiteSpace=wrap;html=1;fillColor=#e1d5e7;strokeColor=#9673a6;" parent="1" vertex="1">
          <mxGeometry x="520" y="460" width="260" height="210" as="geometry" />
        </mxCell>
        <mxCell id="4H8HrIyHu1BFUtkwFFCx-13" value="EC2" style="text;html=1;strokeColor=none;fillColor=none;align=center;verticalAlign=middle;whiteSpace=wrap;rounded=0;fontStyle=1" parent="1" vertex="1">
          <mxGeometry x="552" y="470" width="40" height="20" as="geometry" />
        </mxCell>
        <mxCell id="4H8HrIyHu1BFUtkwFFCx-14" value="" style="outlineConnect=0;dashed=0;verticalLabelPosition=bottom;verticalAlign=top;align=center;html=1;shape=mxgraph.aws3.ec2;fillColor=#F58534;gradientColor=none;" parent="1" vertex="1">
          <mxGeometry x="527.3199999999999" y="465" width="24.68" height="30" as="geometry" />
        </mxCell>
        <mxCell id="4H8HrIyHu1BFUtkwFFCx-15" value="" style="rounded=0;whiteSpace=wrap;html=1;fillColor=#f5f5f5;strokeColor=#666666;fontColor=#333333;fontStyle=1" parent="1" vertex="1">
          <mxGeometry x="460" y="200" width="180" height="200" as="geometry" />
        </mxCell>
        <mxCell id="4H8HrIyHu1BFUtkwFFCx-16" value="Task 4" style="rounded=0;whiteSpace=wrap;html=1;fontStyle=1" parent="1" vertex="1">
          <mxGeometry x="490" y="255" width="120" height="30" as="geometry" />
        </mxCell>
        <mxCell id="4H8HrIyHu1BFUtkwFFCx-17" value="Task 5" style="rounded=0;whiteSpace=wrap;html=1;fontStyle=1" parent="1" vertex="1">
          <mxGeometry x="490" y="300" width="120" height="30" as="geometry" />
        </mxCell>
        <mxCell id="4H8HrIyHu1BFUtkwFFCx-18" value="Task 6" style="rounded=0;whiteSpace=wrap;html=1;fontStyle=1" parent="1" vertex="1">
          <mxGeometry x="490" y="350" width="120" height="30" as="geometry" />
        </mxCell>
        <mxCell id="4H8HrIyHu1BFUtkwFFCx-19" value="ECS Service A" style="text;html=1;strokeColor=none;fillColor=none;align=center;verticalAlign=middle;whiteSpace=wrap;rounded=0;fontStyle=1" parent="1" vertex="1">
          <mxGeometry x="255" y="210" width="130" height="20" as="geometry" />
        </mxCell>
        <mxCell id="4H8HrIyHu1BFUtkwFFCx-20" value="ECS Service B" style="text;html=1;strokeColor=none;fillColor=none;align=center;verticalAlign=middle;whiteSpace=wrap;rounded=0;fontStyle=1" parent="1" vertex="1">
          <mxGeometry x="485" y="210" width="130" height="20" as="geometry" />
        </mxCell>
        <mxCell id="qThhuBaJwghWSxTin29X-5" style="edgeStyle=orthogonalEdgeStyle;rounded=0;orthogonalLoop=1;jettySize=auto;html=1;entryX=0;entryY=0.5;entryDx=0;entryDy=0;fillColor=#f8cecc;strokeColor=#B85450;" edge="1" parent="1" source="4H8HrIyHu1BFUtkwFFCx-21" target="4H8HrIyHu1BFUtkwFFCx-28">
          <mxGeometry relative="1" as="geometry">
            <Array as="points">
              <mxPoint x="120" y="535" />
              <mxPoint x="120" y="860" />
            </Array>
          </mxGeometry>
        </mxCell>
        <mxCell id="4H8HrIyHu1BFUtkwFFCx-21" value="Task 1" style="rounded=0;whiteSpace=wrap;html=1;fontStyle=1" parent="1" vertex="1">
          <mxGeometry x="270" y="520" width="120" height="30" as="geometry" />
        </mxCell>
        <mxCell id="qThhuBaJwghWSxTin29X-8" style="edgeStyle=orthogonalEdgeStyle;rounded=0;orthogonalLoop=1;jettySize=auto;html=1;entryX=1;entryY=0.5;entryDx=0;entryDy=0;strokeColor=#B85450;" edge="1" parent="1" source="4H8HrIyHu1BFUtkwFFCx-22" target="4H8HrIyHu1BFUtkwFFCx-28">
          <mxGeometry relative="1" as="geometry" />
        </mxCell>
        <mxCell id="4H8HrIyHu1BFUtkwFFCx-22" value="Task 2" style="rounded=0;whiteSpace=wrap;html=1;fontStyle=1" parent="1" vertex="1">
          <mxGeometry x="580" y="510" width="120" height="30" as="geometry" />
        </mxCell>
        <mxCell id="qThhuBaJwghWSxTin29X-6" style="edgeStyle=orthogonalEdgeStyle;rounded=0;orthogonalLoop=1;jettySize=auto;html=1;entryX=0;entryY=0.5;entryDx=0;entryDy=0;strokeColor=#B85450;" edge="1" parent="1" source="4H8HrIyHu1BFUtkwFFCx-23" target="4H8HrIyHu1BFUtkwFFCx-28">
          <mxGeometry relative="1" as="geometry">
            <Array as="points">
              <mxPoint x="120" y="565" />
              <mxPoint x="120" y="860" />
            </Array>
          </mxGeometry>
        </mxCell>
        <mxCell id="4H8HrIyHu1BFUtkwFFCx-23" value="Task 3" style="rounded=0;whiteSpace=wrap;html=1;fontStyle=1" parent="1" vertex="1">
          <mxGeometry x="270" y="550" width="120" height="30" as="geometry" />
        </mxCell>
        <mxCell id="qThhuBaJwghWSxTin29X-7" style="edgeStyle=orthogonalEdgeStyle;rounded=0;orthogonalLoop=1;jettySize=auto;html=1;entryX=0;entryY=0.5;entryDx=0;entryDy=0;strokeColor=#B85450;" edge="1" parent="1" source="4H8HrIyHu1BFUtkwFFCx-24" target="4H8HrIyHu1BFUtkwFFCx-28">
          <mxGeometry relative="1" as="geometry">
            <Array as="points">
              <mxPoint x="120" y="595" />
              <mxPoint x="120" y="860" />
            </Array>
          </mxGeometry>
        </mxCell>
        <mxCell id="qThhuBaJwghWSxTin29X-10" value="task state&amp;nbsp;&lt;br&gt;end / start" style="edgeLabel;html=1;align=center;verticalAlign=middle;resizable=0;points=[];" vertex="1" connectable="0" parent="qThhuBaJwghWSxTin29X-7">
          <mxGeometry x="0.0602" y="-2" relative="1" as="geometry">
            <mxPoint as="offset" />
          </mxGeometry>
        </mxCell>
        <mxCell id="4H8HrIyHu1BFUtkwFFCx-24" value="Task 4" style="rounded=0;whiteSpace=wrap;html=1;fontStyle=1" parent="1" vertex="1">
          <mxGeometry x="270" y="580" width="120" height="30" as="geometry" />
        </mxCell>
        <mxCell id="qThhuBaJwghWSxTin29X-9" style="edgeStyle=orthogonalEdgeStyle;rounded=0;orthogonalLoop=1;jettySize=auto;html=1;entryX=1;entryY=0.5;entryDx=0;entryDy=0;strokeColor=#B85450;" edge="1" parent="1" source="4H8HrIyHu1BFUtkwFFCx-25" target="4H8HrIyHu1BFUtkwFFCx-28">
          <mxGeometry relative="1" as="geometry" />
        </mxCell>
        <mxCell id="qThhuBaJwghWSxTin29X-11" value="task state&amp;nbsp;&lt;br&gt;end / start" style="edgeLabel;html=1;align=center;verticalAlign=middle;resizable=0;points=[];" vertex="1" connectable="0" parent="qThhuBaJwghWSxTin29X-9">
          <mxGeometry x="0.2282" y="1" relative="1" as="geometry">
            <mxPoint as="offset" />
          </mxGeometry>
        </mxCell>
        <mxCell id="4H8HrIyHu1BFUtkwFFCx-25" value="Task 5" style="rounded=0;whiteSpace=wrap;html=1;fontStyle=1" parent="1" vertex="1">
          <mxGeometry x="580" y="540" width="120" height="30" as="geometry" />
        </mxCell>
        <mxCell id="4H8HrIyHu1BFUtkwFFCx-26" value="$100" style="text;html=1;strokeColor=none;fillColor=none;align=center;verticalAlign=middle;whiteSpace=wrap;rounded=0;" parent="1" vertex="1">
          <mxGeometry x="740" y="470" width="40" height="20" as="geometry" />
        </mxCell>
        <mxCell id="4H8HrIyHu1BFUtkwFFCx-27" value="$200" style="text;html=1;strokeColor=none;fillColor=none;align=center;verticalAlign=middle;whiteSpace=wrap;rounded=0;" parent="1" vertex="1">
          <mxGeometry x="445" y="470" width="40" height="20" as="geometry" />
        </mxCell>
        <mxCell id="qThhuBaJwghWSxTin29X-1" value="" style="group" vertex="1" connectable="0" parent="1">
          <mxGeometry x="840" y="810" width="320" height="70" as="geometry" />
        </mxCell>
        <mxCell id="4H8HrIyHu1BFUtkwFFCx-31" value="" style="rounded=0;whiteSpace=wrap;html=1;" parent="qThhuBaJwghWSxTin29X-1" vertex="1">
          <mxGeometry width="320" height="70" as="geometry" />
        </mxCell>
        <mxCell id="4H8HrIyHu1BFUtkwFFCx-32" value="" style="points=[[0,0,0],[0.25,0,0],[0.5,0,0],[0.75,0,0],[1,0,0],[0,1,0],[0.25,1,0],[0.5,1,0],[0.75,1,0],[1,1,0],[0,0.25,0],[0,0.5,0],[0,0.75,0],[1,0.25,0],[1,0.5,0],[1,0.75,0]];outlineConnect=0;fontColor=#232F3E;gradientColor=#4D72F3;gradientDirection=north;fillColor=#3334B9;strokeColor=#ffffff;dashed=0;verticalLabelPosition=bottom;verticalAlign=top;align=center;html=1;fontSize=12;fontStyle=0;aspect=fixed;shape=mxgraph.aws4.resourceIcon;resIcon=mxgraph.aws4.dynamodb;" parent="qThhuBaJwghWSxTin29X-1" vertex="1">
          <mxGeometry x="10" y="3.5" width="19.833333333333336" height="19.833333333333336" as="geometry" />
        </mxCell>
        <mxCell id="4H8HrIyHu1BFUtkwFFCx-33" value="&lt;font style=&quot;font-size: 15px&quot;&gt;&lt;b&gt;Dynamo - Task States&lt;/b&gt;&lt;/font&gt;" style="text;html=1;align=center;verticalAlign=middle;resizable=0;points=[];autosize=1;strokeColor=none;" parent="qThhuBaJwghWSxTin29X-1" vertex="1">
          <mxGeometry x="50" y="7.583333333333334" width="170" height="20" as="geometry" />
        </mxCell>
        <mxCell id="qThhuBaJwghWSxTin29X-2" value="" style="group" vertex="1" connectable="0" parent="1">
          <mxGeometry x="220" y="790" width="310" height="140" as="geometry" />
        </mxCell>
        <mxCell id="4H8HrIyHu1BFUtkwFFCx-28" value="" style="rounded=0;whiteSpace=wrap;html=1;" parent="qThhuBaJwghWSxTin29X-2" vertex="1">
          <mxGeometry width="310" height="140" as="geometry" />
        </mxCell>
        <mxCell id="4H8HrIyHu1BFUtkwFFCx-29" value="" style="outlineConnect=0;dashed=0;verticalLabelPosition=bottom;verticalAlign=top;align=center;html=1;shape=mxgraph.aws3.lambda;fillColor=#F58534;gradientColor=none;" parent="qThhuBaJwghWSxTin29X-2" vertex="1">
          <mxGeometry x="10" y="10" width="41.13" height="50" as="geometry" />
        </mxCell>
        <mxCell id="4H8HrIyHu1BFUtkwFFCx-30" value="&lt;font style=&quot;font-size: 15px&quot;&gt;&lt;b&gt;Lambda - Metering&lt;/b&gt;&lt;/font&gt;" style="text;html=1;align=center;verticalAlign=middle;resizable=0;points=[];autosize=1;strokeColor=none;" parent="qThhuBaJwghWSxTin29X-2" vertex="1">
          <mxGeometry x="51.13000000000011" y="25" width="150" height="20" as="geometry" />
        </mxCell>
        <mxCell id="qThhuBaJwghWSxTin29X-12" style="edgeStyle=orthogonalEdgeStyle;rounded=0;orthogonalLoop=1;jettySize=auto;html=1;entryX=0.5;entryY=1;entryDx=0;entryDy=0;strokeColor=#B85450;" edge="1" parent="1" source="4H8HrIyHu1BFUtkwFFCx-28" target="4H8HrIyHu1BFUtkwFFCx-31">
          <mxGeometry relative="1" as="geometry">
            <Array as="points">
              <mxPoint x="375" y="950" />
              <mxPoint x="1000" y="950" />
            </Array>
          </mxGeometry>
        </mxCell>
        <mxCell id="qThhuBaJwghWSxTin29X-13" value="persist task state (end / start)" style="edgeLabel;html=1;align=center;verticalAlign=middle;resizable=0;points=[];" vertex="1" connectable="0" parent="qThhuBaJwghWSxTin29X-12">
          <mxGeometry x="-0.0286" relative="1" as="geometry">
            <mxPoint as="offset" />
          </mxGeometry>
        </mxCell>
        <mxCell id="qThhuBaJwghWSxTin29X-14" value="" style="outlineConnect=0;dashed=0;verticalLabelPosition=bottom;verticalAlign=top;align=center;html=1;shape=mxgraph.aws3.cloudwatch;fillColor=#759C3E;gradientColor=none;" vertex="1" parent="1">
          <mxGeometry x="100" y="660" width="35.49" height="40" as="geometry" />
        </mxCell>
        <mxCell id="qThhuBaJwghWSxTin29X-15" value="" style="outlineConnect=0;dashed=0;verticalLabelPosition=bottom;verticalAlign=top;align=center;html=1;shape=mxgraph.aws3.cloudwatch;fillColor=#759C3E;gradientColor=none;" vertex="1" parent="1">
          <mxGeometry x="540.26" y="690" width="35.49" height="40" as="geometry" />
        </mxCell>
      </root>
    </mxGraphModel>
  </diagram>
</mxfile>
